<svg width="1200" height="320" viewBox="0 0 1200 320" fill="none" xmlns="http://www.w3.org/2000/svg" role="img" aria-labelledby="title desc">
  <title id="title">Forever33 Systems refinado 1</title>
  <desc id="desc">Logo empresarial horizontal para Forever33 Systems con simbolo conectado y bajada Soluciones que conectan.</desc>
  <defs>
    <linearGradient id="f33r1Mark" x1="88" y1="64" x2="260" y2="236" gradientUnits="userSpaceOnUse">
      <stop stop-color="#0A63FF"/>
      <stop offset="0.58" stop-color="#0FAFA1"/>
      <stop offset="1" stop-color="#13AD58"/>
    </linearGradient>
    <filter id="f33r1Shadow" x="52" y="38" width="244" height="244" filterUnits="userSpaceOnUse" color-interpolation-filters="sRGB">
      <feDropShadow dx="0" dy="14" stdDeviation="13" flood-color="#07182D" flood-opacity="0.12"/>
    </filter>
  </defs>
  <rect width="1200" height="320" rx="32" fill="#FFFFFF"/>
  <g filter="url(#f33r1Shadow)">
    <rect x="82" y="58" width="184" height="184" rx="44" fill="#F7FBFF" stroke="#D8E2EF" stroke-width="5"/>
    <path d="M132 207V116C132 103 142 93 155 93H221" stroke="#07182D" stroke-width="14" stroke-linecap="round" stroke-linejoin="round"/>
    <path d="M156 134H213" stroke="#07182D" stroke-width="14" stroke-linecap="round"/>
    <path d="M156 171H197" stroke="#07182D" stroke-width="14" stroke-linecap="round"/>
    <path d="M204 209H155C142 209 132 199 132 186" stroke="url(#f33r1Mark)" stroke-width="14" stroke-linecap="round"/>
    <path d="M204 209H225C239 209 249 199 249 185V111" stroke="url(#f33r1Mark)" stroke-width="14" stroke-linecap="round"/>
    <circle cx="249" cy="84" r="10" fill="#FFFFFF" stroke="#0FAFA1" stroke-width="8"/>
    <circle cx="267" cy="153" r="10" fill="#FFFFFF" stroke="#0A63FF" stroke-width="8"/>
    <circle cx="204" cy="209" r="10" fill="#FFFFFF" stroke="#F59A23" stroke-width="8"/>
  </g>
  <text x="336" y="143" fill="#07182D" font-family="Arial, Helvetica, sans-serif" font-size="58" font-weight="900" letter-spacing="-1">Forever33</text>
  <text x="337" y="193" fill="#0A63FF" font-family="Arial, Helvetica, sans-serif" font-size="34" font-weight="800" letter-spacing="5">SYSTEMS</text>
  <path d="M338 222H476" stroke="#0FAFA1" stroke-width="5" stroke-linecap="round"/>
  <text x="500" y="231" fill="#536176" font-family="Arial, Helvetica, sans-serif" font-size="25" font-weight="700">Soluciones que conectan</text>
</svg>
